# Created by Kenney (www.kenney.nl)

mtllib wood-fence-with-snow.mtl

v 4 4 1
v 4 4 -1
v 2 4 1
v 2 4 -1
v 2 5 -1
v 2 5 1
v 4 5 -1
v 4 5 1
v 4 -3 1
v 4 -3 -1
v 2 -3 1
v 2 -3 -1
v 2 3 0.5
v 2 3 -0.5
v 0 3 0.5
v 0 3 -0.5
v 0 4 -0.5
v 0 4 0.5
v 2 4 -0.5
v 2 4 0.5
v 2 2 0.5
v 2 2 -0.5
v 0 2 0.5
v 0 2 -0.5
v 2 -1 0.5
v 2 -1 -0.5
v 0 -1 0.5
v 0 -1 -0.5
v 0 0 -0.5
v 0 0 0.5
v 2 0 -0.5
v 2 0 0.5
v 2 -2 0.5
v 2 -2 -0.5
v 0 -2 0.5
v 0 -2 -0.5
v 0 4 1
v 0 4 -1
v -2 4 1
v -2 4 -1
v -2 5 -1
v -2 5 1
v 0 5 -1
v 0 5 1
v 0 -3 1
v 0 -3 -1
v -2 -3 1
v -2 -3 -1
v -2 3 0.5
v -2 3 -0.5
v -4 3 0.5
v -4 3 -0.5
v -4 4 -0.5
v -4 4 0.5
v -2 4 -0.5
v -2 4 0.5
v -2 2 0.5
v -2 2 -0.5
v -4 2 0.5
v -4 2 -0.5
v -2 -1 0.5
v -2 -1 -0.5
v -4 -1 0.5
v -4 -1 -0.5
v -4 0 -0.5
v -4 0 0.5
v -2 0 -0.5
v -2 0 0.5
v -2 -2 0.5
v -2 -2 -0.5
v -4 -2 0.5
v -4 -2 -0.5

vn 0 -1 0
vn -1 0 0
vn 0 0 -1
vn 0 0 1
vn 1 0 0
vn 0 1 0

vt 0.0625 0.0625
vt 0.1875 0.0625
vt 0.3125 0.0625

usemtl palette(Clone)

f 3/1/1 2/1/1 1/1/1
f 2/1/1 3/1/1 4/1/1
f 3/1/2 5/1/2 4/1/2
f 5/1/2 3/1/2 6/1/2
f 5/1/3 2/1/3 4/1/3
f 2/1/3 5/1/3 7/1/3
f 8/1/4 3/1/4 1/1/4
f 3/1/4 8/1/4 6/1/4
f 8/1/5 2/1/5 7/1/5
f 2/1/5 8/1/5 1/1/5
f 5/1/6 8/1/6 7/1/6
f 8/1/6 5/1/6 6/1/6
f 11/2/1 10/2/1 9/2/1
f 10/2/1 11/2/1 12/2/1
f 11/2/2 4/2/2 12/2/2
f 4/2/2 11/2/2 3/2/2
f 4/2/3 10/2/3 12/2/3
f 10/2/3 4/2/3 2/2/3
f 1/2/4 11/2/4 9/2/4
f 11/2/4 1/2/4 3/2/4
f 1/2/5 10/2/5 2/2/5
f 10/2/5 1/2/5 9/2/5
f 4/2/6 1/2/6 2/2/6
f 1/2/6 4/2/6 3/2/6
f 15/1/1 14/1/1 13/1/1
f 14/1/1 15/1/1 16/1/1
f 15/1/2 17/1/2 16/1/2
f 17/1/2 15/1/2 18/1/2
f 17/1/3 14/1/3 16/1/3
f 14/1/3 17/1/3 19/1/3
f 20/1/4 15/1/4 13/1/4
f 15/1/4 20/1/4 18/1/4
f 20/1/5 14/1/5 19/1/5
f 14/1/5 20/1/5 13/1/5
f 17/1/6 20/1/6 19/1/6
f 20/1/6 17/1/6 18/1/6
f 23/3/1 22/3/1 21/3/1
f 22/3/1 23/3/1 24/3/1
f 23/3/2 16/3/2 24/3/2
f 16/3/2 23/3/2 15/3/2
f 16/3/3 22/3/3 24/3/3
f 22/3/3 16/3/3 14/3/3
f 13/3/4 23/3/4 21/3/4
f 23/3/4 13/3/4 15/3/4
f 13/3/5 22/3/5 14/3/5
f 22/3/5 13/3/5 21/3/5
f 16/3/6 13/3/6 14/3/6
f 13/3/6 16/3/6 15/3/6
f 27/1/1 26/1/1 25/1/1
f 26/1/1 27/1/1 28/1/1
f 27/1/2 29/1/2 28/1/2
f 29/1/2 27/1/2 30/1/2
f 29/1/3 26/1/3 28/1/3
f 26/1/3 29/1/3 31/1/3
f 32/1/4 27/1/4 25/1/4
f 27/1/4 32/1/4 30/1/4
f 32/1/5 26/1/5 31/1/5
f 26/1/5 32/1/5 25/1/5
f 29/1/6 32/1/6 31/1/6
f 32/1/6 29/1/6 30/1/6
f 35/3/1 34/3/1 33/3/1
f 34/3/1 35/3/1 36/3/1
f 35/3/2 28/3/2 36/3/2
f 28/3/2 35/3/2 27/3/2
f 28/3/3 34/3/3 36/3/3
f 34/3/3 28/3/3 26/3/3
f 25/3/4 35/3/4 33/3/4
f 35/3/4 25/3/4 27/3/4
f 25/3/5 34/3/5 26/3/5
f 34/3/5 25/3/5 33/3/5
f 28/3/6 25/3/6 26/3/6
f 25/3/6 28/3/6 27/3/6
f 39/1/1 38/1/1 37/1/1
f 38/1/1 39/1/1 40/1/1
f 39/1/2 41/1/2 40/1/2
f 41/1/2 39/1/2 42/1/2
f 41/1/3 38/1/3 40/1/3
f 38/1/3 41/1/3 43/1/3
f 44/1/4 39/1/4 37/1/4
f 39/1/4 44/1/4 42/1/4
f 44/1/5 38/1/5 43/1/5
f 38/1/5 44/1/5 37/1/5
f 41/1/6 44/1/6 43/1/6
f 44/1/6 41/1/6 42/1/6
f 47/2/1 46/2/1 45/2/1
f 46/2/1 47/2/1 48/2/1
f 47/2/2 40/2/2 48/2/2
f 40/2/2 47/2/2 39/2/2
f 40/2/3 46/2/3 48/2/3
f 46/2/3 40/2/3 38/2/3
f 37/2/4 47/2/4 45/2/4
f 47/2/4 37/2/4 39/2/4
f 37/2/5 46/2/5 38/2/5
f 46/2/5 37/2/5 45/2/5
f 40/2/6 37/2/6 38/2/6
f 37/2/6 40/2/6 39/2/6
f 51/1/1 50/1/1 49/1/1
f 50/1/1 51/1/1 52/1/1
f 51/1/2 53/1/2 52/1/2
f 53/1/2 51/1/2 54/1/2
f 53/1/3 50/1/3 52/1/3
f 50/1/3 53/1/3 55/1/3
f 56/1/4 51/1/4 49/1/4
f 51/1/4 56/1/4 54/1/4
f 56/1/5 50/1/5 55/1/5
f 50/1/5 56/1/5 49/1/5
f 53/1/6 56/1/6 55/1/6
f 56/1/6 53/1/6 54/1/6
f 59/3/1 58/3/1 57/3/1
f 58/3/1 59/3/1 60/3/1
f 59/3/2 52/3/2 60/3/2
f 52/3/2 59/3/2 51/3/2
f 52/3/3 58/3/3 60/3/3
f 58/3/3 52/3/3 50/3/3
f 49/3/4 59/3/4 57/3/4
f 59/3/4 49/3/4 51/3/4
f 49/3/5 58/3/5 50/3/5
f 58/3/5 49/3/5 57/3/5
f 52/3/6 49/3/6 50/3/6
f 49/3/6 52/3/6 51/3/6
f 63/1/1 62/1/1 61/1/1
f 62/1/1 63/1/1 64/1/1
f 63/1/2 65/1/2 64/1/2
f 65/1/2 63/1/2 66/1/2
f 65/1/3 62/1/3 64/1/3
f 62/1/3 65/1/3 67/1/3
f 68/1/4 63/1/4 61/1/4
f 63/1/4 68/1/4 66/1/4
f 68/1/5 62/1/5 67/1/5
f 62/1/5 68/1/5 61/1/5
f 65/1/6 68/1/6 67/1/6
f 68/1/6 65/1/6 66/1/6
f 71/3/1 70/3/1 69/3/1
f 70/3/1 71/3/1 72/3/1
f 71/3/2 64/3/2 72/3/2
f 64/3/2 71/3/2 63/3/2
f 64/3/3 70/3/3 72/3/3
f 70/3/3 64/3/3 62/3/3
f 61/3/4 71/3/4 69/3/4
f 71/3/4 61/3/4 63/3/4
f 61/3/5 70/3/5 62/3/5
f 70/3/5 61/3/5 69/3/5
f 64/3/6 61/3/6 62/3/6
f 61/3/6 64/3/6 63/3/6

