# Created by Kenney (www.kenney.nl)

mtllib wood-gate-with-snow.mtl

v 3 3 0.5
v 3 3 -0.5
v 2 3 0.5
v 2 3 -0.5
v 2 4 -0.5
v 2 4 0.5
v 3 4 -0.5
v 3 4 0.5
v 3 2 1
v 3 2 -1
v 2 2 1
v 2 2 -1
v 2 3 -1
v 2 3 1
v 3 3 -1
v 3 3 1
v 3 -1 0.5
v 3 -1 -0.5
v 2 -1 0.5
v 2 -1 -0.5
v 2 2 -0.5
v 2 2 0.5
v 3 2 -0.5
v 3 2 0.5
v 3 -2 1
v 3 -2 -1
v 2 -2 1
v 2 -2 -1
v 2 -1 -1
v 2 -1 1
v 3 -1 -1
v 3 -1 1
v 3 -3 0.5
v 3 -3 -0.5
v -3 -3 0.5
v -3 -3 -0.5
v -3 -2 -0.5
v -3 -2 0.5
v 3 -2 -0.5
v 3 -2 0.5
v -2 4 0.5
v -2 4 -0.5
v -2 5 -0.5
v -2 5 0.5
v 2 5 -0.5
v 2 5 0.5
v -2 3 0.5
v -2 3 -0.5
v 2 -2 0.5
v 2 -2 -0.5
v 1 -2 0.5
v 1 -2 -0.5
v 1 3 -0.5
v 1 3 0.5
v 0 -2 0.5
v 0 -2 -0.5
v 0 3 -0.5
v 0 3 0.5
v -1 -2 0.5
v -1 -2 -0.5
v -1 3 -0.5
v -1 3 0.5
v -1 2 0.5
v -1 2 -0.5
v -3 2 0.5
v -3 2 -0.5
v -3 3 -0.5
v -3 3 0.5
v -1 0 1
v -1 0 -1
v -2 0 1
v -2 0 -1
v -2 2 -1
v -2 2 1
v -1 2 -1
v -1 2 1
v -3 0 -0.5
v -3 0 0.5
v -1 0 -0.5
v -1 0 0.5
v -3 4 -0.5
v -3 4 0.5
v -2 0 0.5
v -2 0 -0.5
v -2 2 -0.5
v -2 2 0.5

vn 0 -1 0
vn -1 0 0
vn 0 0 -1
vn 0 0 1
vn 1 0 0
vn 0 1 0

vt 0.0625 0.0625
vt 0.1875 0.0625
vt 0.3125 0.0625
vt 0.4375 0.0625
vt 0.5625 0.0625

usemtl palette(Clone)

f 3/1/1 2/1/1 1/1/1
f 2/1/1 3/1/1 4/1/1
f 3/1/2 5/1/2 4/1/2
f 5/1/2 3/1/2 6/1/2
f 5/1/3 2/1/3 4/1/3
f 2/1/3 5/1/3 7/1/3
f 8/1/4 3/1/4 1/1/4
f 3/1/4 8/1/4 6/1/4
f 8/1/5 2/1/5 7/1/5
f 2/1/5 8/1/5 1/1/5
f 5/1/6 8/1/6 7/1/6
f 8/1/6 5/1/6 6/1/6
f 11/2/1 10/2/1 9/2/1
f 10/2/1 11/2/1 12/2/1
f 11/2/2 13/2/2 12/2/2
f 13/2/2 11/2/2 14/2/2
f 13/2/3 10/2/3 12/2/3
f 10/2/3 13/2/3 15/2/3
f 16/2/4 11/2/4 9/2/4
f 11/2/4 16/2/4 14/2/4
f 16/2/5 10/2/5 15/2/5
f 10/2/5 16/2/5 9/2/5
f 13/2/6 16/2/6 15/2/6
f 16/2/6 13/2/6 14/2/6
f 19/3/1 18/3/1 17/3/1
f 18/3/1 19/3/1 20/3/1
f 19/3/2 21/3/2 20/3/2
f 21/3/2 19/3/2 22/3/2
f 21/3/3 18/3/3 20/3/3
f 18/3/3 21/3/3 23/3/3
f 24/3/4 19/3/4 17/3/4
f 19/3/4 24/3/4 22/3/4
f 24/3/5 18/3/5 23/3/5
f 18/3/5 24/3/5 17/3/5
f 21/3/6 24/3/6 23/3/6
f 24/3/6 21/3/6 22/3/6
f 27/2/1 26/2/1 25/2/1
f 26/2/1 27/2/1 28/2/1
f 27/2/2 29/2/2 28/2/2
f 29/2/2 27/2/2 30/2/2
f 29/2/3 26/2/3 28/2/3
f 26/2/3 29/2/3 31/2/3
f 32/2/4 27/2/4 25/2/4
f 27/2/4 32/2/4 30/2/4
f 32/2/5 26/2/5 31/2/5
f 26/2/5 32/2/5 25/2/5
f 29/2/6 32/2/6 31/2/6
f 32/2/6 29/2/6 30/2/6
f 35/3/1 34/3/1 33/3/1
f 34/3/1 35/3/1 36/3/1
f 35/3/2 37/3/2 36/3/2
f 37/3/2 35/3/2 38/3/2
f 37/3/3 34/3/3 36/3/3
f 34/3/3 37/3/3 39/3/3
f 40/3/4 35/3/4 33/3/4
f 35/3/4 40/3/4 38/3/4
f 40/3/5 34/3/5 39/3/5
f 34/3/5 40/3/5 33/3/5
f 37/3/6 40/3/6 39/3/6
f 40/3/6 37/3/6 38/3/6
f 41/1/1 5/1/1 6/1/1
f 5/1/1 41/1/1 42/1/1
f 41/1/2 43/1/2 42/1/2
f 43/1/2 41/1/2 44/1/2
f 43/1/3 5/1/3 42/1/3
f 5/1/3 43/1/3 45/1/3
f 46/1/4 41/1/4 6/1/4
f 41/1/4 46/1/4 44/1/4
f 46/1/5 5/1/5 45/1/5
f 5/1/5 46/1/5 6/1/5
f 43/1/6 46/1/6 45/1/6
f 46/1/6 43/1/6 44/1/6
f 47/3/1 4/3/1 3/3/1
f 4/3/1 47/3/1 48/3/1
f 47/3/2 42/3/2 48/3/2
f 42/3/2 47/3/2 41/3/2
f 42/3/3 4/3/3 48/3/3
f 4/3/3 42/3/3 5/3/3
f 6/3/4 47/3/4 3/3/4
f 47/3/4 6/3/4 41/3/4
f 6/3/5 4/3/5 5/3/5
f 4/3/5 6/3/5 3/3/5
f 42/3/6 6/3/6 5/3/6
f 6/3/6 42/3/6 41/3/6
f 51/4/1 50/4/1 49/4/1
f 50/4/1 51/4/1 52/4/1
f 51/4/2 53/4/2 52/4/2
f 53/4/2 51/4/2 54/4/2
f 53/4/3 50/4/3 52/4/3
f 50/4/3 53/4/3 4/4/3
f 3/4/4 51/4/4 49/4/4
f 51/4/4 3/4/4 54/4/4
f 3/4/5 50/4/5 4/4/5
f 50/4/5 3/4/5 49/4/5
f 53/4/6 3/4/6 4/4/6
f 3/4/6 53/4/6 54/4/6
f 55/3/1 52/3/1 51/3/1
f 52/3/1 55/3/1 56/3/1
f 55/3/2 57/3/2 56/3/2
f 57/3/2 55/3/2 58/3/2
f 57/3/3 52/3/3 56/3/3
f 52/3/3 57/3/3 53/3/3
f 54/3/4 55/3/4 51/3/4
f 55/3/4 54/3/4 58/3/4
f 54/3/5 52/3/5 53/3/5
f 52/3/5 54/3/5 51/3/5
f 57/3/6 54/3/6 53/3/6
f 54/3/6 57/3/6 58/3/6
f 59/4/1 56/4/1 55/4/1
f 56/4/1 59/4/1 60/4/1
f 59/4/2 61/4/2 60/4/2
f 61/4/2 59/4/2 62/4/2
f 61/4/3 56/4/3 60/4/3
f 56/4/3 61/4/3 57/4/3
f 58/4/4 59/4/4 55/4/4
f 59/4/4 58/4/4 62/4/4
f 58/4/5 56/4/5 57/4/5
f 56/4/5 58/4/5 55/4/5
f 61/4/6 58/4/6 57/4/6
f 58/4/6 61/4/6 62/4/6
f 65/3/1 64/3/1 63/3/1
f 64/3/1 65/3/1 66/3/1
f 65/3/2 67/3/2 66/3/2
f 67/3/2 65/3/2 68/3/2
f 67/3/3 64/3/3 66/3/3
f 64/3/3 67/3/3 61/3/3
f 62/3/4 65/3/4 63/3/4
f 65/3/4 62/3/4 68/3/4
f 62/3/5 64/3/5 61/3/5
f 64/3/5 62/3/5 63/3/5
f 67/3/6 62/3/6 61/3/6
f 62/3/6 67/3/6 68/3/6
f 71/5/1 70/5/1 69/5/1
f 70/5/1 71/5/1 72/5/1
f 71/5/2 73/5/2 72/5/2
f 73/5/2 71/5/2 74/5/2
f 73/5/3 70/5/3 72/5/3
f 70/5/3 73/5/3 75/5/3
f 76/5/4 71/5/4 69/5/4
f 71/5/4 76/5/4 74/5/4
f 76/5/5 70/5/5 75/5/5
f 70/5/5 76/5/5 69/5/5
f 73/5/6 76/5/6 75/5/6
f 76/5/6 73/5/6 74/5/6
f 38/3/1 60/3/1 59/3/1
f 60/3/1 38/3/1 37/3/1
f 38/3/2 77/3/2 37/3/2
f 77/3/2 38/3/2 78/3/2
f 77/3/3 60/3/3 37/3/3
f 60/3/3 77/3/3 79/3/3
f 80/3/4 38/3/4 59/3/4
f 38/3/4 80/3/4 78/3/4
f 80/3/5 60/3/5 79/3/5
f 60/3/5 80/3/5 59/3/5
f 77/3/6 80/3/6 79/3/6
f 80/3/6 77/3/6 78/3/6
f 68/1/1 48/1/1 47/1/1
f 48/1/1 68/1/1 67/1/1
f 68/1/2 81/1/2 67/1/2
f 81/1/2 68/1/2 82/1/2
f 81/1/3 48/1/3 67/1/3
f 48/1/3 81/1/3 42/1/3
f 41/1/4 68/1/4 47/1/4
f 68/1/4 41/1/4 82/1/4
f 41/1/5 48/1/5 42/1/5
f 48/1/5 41/1/5 47/1/5
f 81/1/6 41/1/6 42/1/6
f 41/1/6 81/1/6 82/1/6
f 78/3/1 84/3/1 83/3/1
f 84/3/1 78/3/1 77/3/1
f 78/3/2 66/3/2 77/3/2
f 66/3/2 78/3/2 65/3/2
f 66/3/3 84/3/3 77/3/3
f 84/3/3 66/3/3 85/3/3
f 86/3/4 78/3/4 83/3/4
f 78/3/4 86/3/4 65/3/4
f 86/3/5 84/3/5 85/3/5
f 84/3/5 86/3/5 83/3/5
f 66/3/6 86/3/6 85/3/6
f 86/3/6 66/3/6 65/3/6

